<svg width="102" height="25" viewBox="0 0 102 25" fill="none" xmlns="http://www.w3.org/2000/svg">
<g clip-path="url(#clip0_15_580)">
<path d="M0 15.5005H6V6.50105H18V0.5H0" fill="#111827"/>
<path d="M0 24.4995H12H18V18.4985V9.49902H12V18.4985H0" fill="#111827"/>
</g>
<g clip-path="url(#clip1_15_580)">
<path d="M33.2852 10.2536C33.2852 10.936 33.6502 11.2773 34.3802 11.2773H37.6654C38.8517 11.2773 39.7338 11.5332 40.2966 12.045C40.8593 12.5569 41.1331 13.3673 41.1331 14.4621V15.3009C41.1331 16.3957 40.8593 17.2062 40.2966 17.718C39.7338 18.2299 38.8669 18.4858 37.6654 18.4858H32.8137C31.9316 18.4858 31.0494 18.4147 30.1673 18.2583V16.0687H36.9354C37.2091 16.0687 37.4373 15.9976 37.6046 15.8555C37.7719 15.7133 37.8479 15.5142 37.8479 15.2725V13.8223H33.6502C32.3726 13.8223 31.4449 13.5521 30.8669 13.0118C30.289 12.4716 30 11.6043 30 10.41V9.8981C30 8.71801 30.289 7.85071 30.8669 7.31043C31.4449 6.77014 32.3726 6.5 33.6502 6.5H40.0532V8.88863H34.3802C33.6502 8.88863 33.2852 9.22986 33.2852 9.91232V10.2536Z" fill="#111827"/>
<path d="M44.6922 18.4431H41.1333L45.9698 6.5H49.62L54.4565 18.4431H50.8976L50.0763 16.3104H45.5135L44.6922 18.4431ZM46.3348 14.0924H49.255L47.7949 10.0829L46.3348 14.0924Z" fill="#111827"/>
<path d="M52.4487 6.5H55.9164L58.9278 12.3009L61.9392 6.5H65.4069L60.5704 15.2867V18.4431H57.2852V15.2867L52.4487 6.5Z" fill="#111827"/>
<path d="M66.1367 6.5H73.8021C75.0797 6.5 76.0074 6.77014 76.5854 7.31043C77.1633 7.85071 77.4523 8.71801 77.4523 9.91232V11.4479C77.4523 12.3863 77.285 13.1256 76.9504 13.6517C76.6158 14.1777 76.0835 14.519 75.3534 14.6896L77.6348 18.4431H74.0759L71.977 14.8602H69.4219V18.4431H66.1367V6.5ZM74.1671 9.91232C74.1671 9.22986 73.8021 8.88863 73.0721 8.88863H69.4219V12.4716H73.0721C73.8021 12.4716 74.1671 12.1303 74.1671 11.4479V9.91232Z" fill="#111827"/>
<path d="M89.4066 18.4431H79.2773V6.5H89.4066V8.88863H82.5625V11.1919H87.9465V13.5806H82.5625V16.0545H89.4066V18.4431Z" fill="#111827"/>
<path d="M102 18.4431H98.5321L94.1519 11.2773V18.4431H90.8667V6.5H94.3344L98.7146 13.6659V6.5H102V18.4431Z" fill="#111827"/>
</g>
<defs>
<clipPath id="clip0_15_580">
<rect width="18" height="24" fill="white" transform="translate(0 0.5)"/>
</clipPath>
<clipPath id="clip1_15_580">
<rect width="72" height="12" fill="white" transform="translate(30 6.5)"/>
</clipPath>
</defs>
</svg>
