<svg width="118" height="30" viewBox="0 0 118 30" fill="none" xmlns="http://www.w3.org/2000/svg">
<g clip-path="url(#clip0_29_142)">
<path d="M0 18.7507H7.33333V7.50132H22V0H0" fill="white"/>
<path d="M0 30.0007H14.6667H22V22.4993V11.25H14.6667V22.4993H0" fill="white"/>
</g>
<g clip-path="url(#clip1_29_142)">
<path d="M41.6502 12.3791C41.6502 13.1754 42.0558 13.5735 42.8669 13.5735H46.5171C47.8352 13.5735 48.8154 13.872 49.4406 14.4692C50.0659 15.0664 50.3701 16.0118 50.3701 17.2891V18.2678C50.3701 19.545 50.0659 20.4905 49.4406 21.0877C48.8154 21.6848 47.8521 21.9834 46.5171 21.9834H41.1263C40.1462 21.9834 39.166 21.9005 38.1859 21.718V19.1635H45.706C46.0101 19.1635 46.2636 19.0806 46.4495 18.9147C46.6354 18.7488 46.7199 18.5166 46.7199 18.2346V16.5427H42.0558C40.6362 16.5427 39.6054 16.2275 38.9632 15.5972C38.3211 14.9668 38 13.955 38 12.5616V11.9645C38 10.5877 38.3211 9.57583 38.9632 8.9455C39.6054 8.31517 40.6362 8 42.0558 8H49.1703V10.7867H42.8669C42.0558 10.7867 41.6502 11.1848 41.6502 11.981V12.3791Z" fill="white"/>
<path d="M54.3245 21.9336H50.3701L55.744 8H59.7998L65.1737 21.9336H61.2193L60.3067 19.4455H55.237L54.3245 21.9336ZM56.1496 16.8578H59.3942L57.7719 12.1801L56.1496 16.8578Z" fill="white"/>
<path d="M62.9429 8H66.7959L70.1419 14.7678L73.4879 8H77.3408L71.967 18.2512V21.9336H68.3168V18.2512L62.9429 8Z" fill="white"/>
<path d="M78.1519 8H86.669C88.0885 8 89.1193 8.31517 89.7615 8.9455C90.4036 9.57583 90.7247 10.5877 90.7247 11.981V13.7725C90.7247 14.8673 90.5388 15.7299 90.1671 16.3436C89.7953 16.9573 89.2038 17.3555 88.3927 17.5545L90.9275 21.9336H86.9731L84.6411 17.7536H81.802V21.9336H78.1519V8ZM87.0745 11.981C87.0745 11.1848 86.669 10.7867 85.8578 10.7867H81.802V14.9668H85.8578C86.669 14.9668 87.0745 14.5687 87.0745 13.7725V11.981Z" fill="white"/>
<path d="M104.008 21.9336H92.7529V8H104.008V10.7867H96.4031V13.4739H102.385V16.2607H96.4031V19.1469H104.008V21.9336Z" fill="white"/>
<path d="M118 21.9336H114.147L109.28 13.5735V21.9336H105.63V8H109.483L114.35 16.3602V8H118V21.9336Z" fill="white"/>
</g>
<defs>
<clipPath id="clip0_29_142">
<rect width="22" height="30" fill="white"/>
</clipPath>
<clipPath id="clip1_29_142">
<rect width="80" height="14" fill="white" transform="translate(38 8)"/>
</clipPath>
</defs>
</svg>
